solid ASCII
  facet normal 1.564154e-14 -3.420201e-01 9.396926e-01
    outer loop
      vertex   -7.695390e+01 1.265289e+02 4.703635e+00
      vertex   -7.519045e+01 1.268211e+02 4.809984e+00
      vertex   -7.495691e+01 1.309277e+02 6.304642e+00
    endloop
  endfacet
  facet normal 2.148802e-14 -3.420201e-01 9.396926e-01
    outer loop
      vertex   -7.495691e+01 1.309277e+02 6.304642e+00
      vertex   -7.519045e+01 1.268211e+02 4.809984e+00
      vertex   -7.319346e+01 1.312199e+02 6.410991e+00
    endloop
  endfacet
  facet normal -6.503941e-01 5.025777e-01 -5.695640e-01
    outer loop
      vertex   -7.695390e+01 1.268025e+02 3.951883e+00
      vertex   -7.495691e+01 1.312013e+02 5.552890e+00
      vertex   -7.636608e+01 1.270710e+02 3.517486e+00
    endloop
  endfacet
  facet normal -6.503951e-01 5.025776e-01 -5.695630e-01
    outer loop
      vertex   -7.636608e+01 1.270710e+02 3.517486e+00
      vertex   -7.495691e+01 1.312013e+02 5.552890e+00
      vertex   -7.436909e+01 1.314697e+02 5.118492e+00
    endloop
  endfacet
  facet normal -9.197962e-01 3.687321e-01 1.342075e-01
    outer loop
      vertex   -7.495691e+01 1.309277e+02 6.304642e+00
      vertex   -7.495691e+01 1.312013e+02 5.552890e+00
      vertex   -7.695390e+01 1.265289e+02 4.703635e+00
    endloop
  endfacet
  facet normal -9.197962e-01 3.687321e-01 1.342075e-01
    outer loop
      vertex   -7.695390e+01 1.265289e+02 4.703635e+00
      vertex   -7.495691e+01 1.312013e+02 5.552890e+00
      vertex   -7.695390e+01 1.268025e+02 3.951883e+00
    endloop
  endfacet
  facet normal -1.736482e-01 9.254166e-01 3.368241e-01
    outer loop
      vertex   -8.356843e+01 1.358237e+02 6.703202e+00
      vertex   -8.356843e+01 1.361657e+02 5.763509e+00
      vertex   -8.667134e+01 1.353095e+02 6.516074e+00
    endloop
  endfacet
  facet normal -1.736482e-01 9.254166e-01 3.368241e-01
    outer loop
      vertex   -8.667134e+01 1.353095e+02 6.516074e+00
      vertex   -8.356843e+01 1.361657e+02 5.763509e+00
      vertex   -8.765615e+01 1.354884e+02 5.516990e+00
    endloop
  endfacet
  facet normal -1.736482e-01 9.254166e-01 3.368241e-01
    outer loop
      vertex   -8.667134e+01 1.353095e+02 6.516074e+00
      vertex   -8.765615e+01 1.354884e+02 5.516990e+00
      vertex   -8.765615e+01 1.329232e+02 1.256468e+01
    endloop
  endfacet
  facet normal -1.736482e-01 9.254166e-01 3.368241e-01
    outer loop
      vertex   -8.765615e+01 1.329232e+02 1.256468e+01
      vertex   -8.667134e+01 1.330864e+02 1.262408e+01
      vertex   -8.667134e+01 1.353095e+02 6.516074e+00
    endloop
  endfacet
  facet normal -1.833501e-09 -3.420201e-01 9.396926e-01
    outer loop
      vertex   -8.020019e+01 1.344734e+02 6.211741e+00
      vertex   -8.356843e+01 1.358237e+02 6.703202e+00
      vertex   -8.632404e+01 1.334587e+02 5.842427e+00
    endloop
  endfacet
  facet normal -1.833197e-09 -3.420201e-01 9.396926e-01
    outer loop
      vertex   -8.632404e+01 1.334587e+02 5.842427e+00
      vertex   -8.356843e+01 1.358237e+02 6.703202e+00
      vertex   -8.667134e+01 1.353095e+02 6.516074e+00
    endloop
  endfacet
  facet normal 3.923965e-01 8.643257e-01 3.145888e-01
    outer loop
      vertex   -8.356843e+01 1.358237e+02 6.703202e+00
      vertex   -8.020019e+01 1.344734e+02 6.211741e+00
      vertex   -8.356843e+01 1.361657e+02 5.763509e+00
    endloop
  endfacet
  facet normal 3.923965e-01 8.643257e-01 3.145888e-01
    outer loop
      vertex   -8.356843e+01 1.361657e+02 5.763509e+00
      vertex   -8.020019e+01 1.344734e+02 6.211741e+00
      vertex   -7.917214e+01 1.344033e+02 5.122045e+00
    endloop
  endfacet
  facet normal 3.923965e-01 8.643257e-01 3.145888e-01
    outer loop
      vertex   -7.917214e+01 1.344033e+02 5.122045e+00
      vertex   -8.020019e+01 1.344734e+02 6.211741e+00
      vertex   -7.779244e+01 1.333371e+02 6.330273e+00
    endloop
  endfacet
  facet normal 3.923965e-01 8.643257e-01 3.145888e-01
    outer loop
      vertex   -7.779244e+01 1.333371e+02 6.330273e+00
      vertex   -8.020019e+01 1.344734e+02 6.211741e+00
      vertex   -7.871224e+01 1.334322e+02 7.216236e+00
    endloop
  endfacet
  facet normal 3.923965e-01 8.643257e-01 3.145888e-01
    outer loop
      vertex   -7.779244e+01 1.333371e+02 6.330273e+00
      vertex   -7.871224e+01 1.334322e+02 7.216236e+00
      vertex   -7.779244e+01 1.330635e+02 7.082029e+00
    endloop
  endfacet
  facet normal 3.923965e-01 8.643257e-01 3.145888e-01
    outer loop
      vertex   -7.871224e+01 1.334322e+02 7.216236e+00
      vertex   -8.020019e+01 1.344734e+02 6.211741e+00
      vertex   -7.871224e+01 1.321668e+02 1.069310e+01
    endloop
  endfacet
  facet normal 3.923965e-01 8.643257e-01 3.145888e-01
    outer loop
      vertex   -7.871224e+01 1.321668e+02 1.069310e+01
      vertex   -8.020019e+01 1.344734e+02 6.211741e+00
      vertex   -8.020019e+01 1.322502e+02 1.231974e+01
    endloop
  endfacet
  facet normal 3.923965e-01 8.643257e-01 3.145888e-01
    outer loop
      vertex   -7.871224e+01 1.321668e+02 1.069310e+01
      vertex   -8.020019e+01 1.322502e+02 1.231974e+01
      vertex   -7.181377e+01 1.288883e+02 1.109608e+01
    endloop
  endfacet
  facet normal 3.923965e-01 8.643257e-01 3.145888e-01
    outer loop
      vertex   -7.871224e+01 1.321668e+02 1.069310e+01
      vertex   -7.181377e+01 1.288883e+02 1.109608e+01
      vertex   -7.319346e+01 1.299544e+02 9.887854e+00
    endloop
  endfacet
  facet normal 3.923965e-01 8.643257e-01 3.145888e-01
    outer loop
      vertex   -7.319346e+01 1.299544e+02 9.887854e+00
      vertex   -7.181377e+01 1.288883e+02 1.109608e+01
      vertex   -7.181377e+01 1.311114e+02 4.988080e+00
    endloop
  endfacet
  facet normal 3.923965e-01 8.643257e-01 3.145888e-01
    outer loop
      vertex   -7.319346e+01 1.299544e+02 9.887854e+00
      vertex   -7.181377e+01 1.311114e+02 4.988080e+00
      vertex   -7.319346e+01 1.312199e+02 6.410991e+00
    endloop
  endfacet
  facet normal 3.923965e-01 8.643257e-01 3.145888e-01
    outer loop
      vertex   -7.319346e+01 1.312199e+02 6.410991e+00
      vertex   -7.181377e+01 1.311114e+02 4.988080e+00
      vertex   -7.319346e+01 1.316645e+02 5.189391e+00
    endloop
  endfacet
  facet normal -1.736482e-01 9.254166e-01 3.368241e-01
    outer loop
      vertex   -7.319346e+01 1.316645e+02 5.189391e+00
      vertex   -7.436909e+01 1.314697e+02 5.118492e+00
      vertex   -7.319346e+01 1.312199e+02 6.410991e+00
    endloop
  endfacet
  facet normal -1.736482e-01 9.254166e-01 3.368241e-01
    outer loop
      vertex   -7.319346e+01 1.312199e+02 6.410991e+00
      vertex   -7.436909e+01 1.314697e+02 5.118492e+00
      vertex   -7.495691e+01 1.312013e+02 5.552890e+00
    endloop
  endfacet
  facet normal -1.736482e-01 9.254166e-01 3.368241e-01
    outer loop
      vertex   -7.319346e+01 1.312199e+02 6.410991e+00
      vertex   -7.495691e+01 1.312013e+02 5.552890e+00
      vertex   -7.495691e+01 1.309277e+02 6.304642e+00
    endloop
  endfacet
  facet normal 1.736482e-01 -9.254166e-01 -3.368241e-01
    outer loop
      vertex   -7.695390e+01 1.265289e+02 4.703635e+00
      vertex   -7.695390e+01 1.268025e+02 3.951883e+00
      vertex   -7.519045e+01 1.268211e+02 4.809984e+00
    endloop
  endfacet
  facet normal 1.736482e-01 -9.254166e-01 -3.368241e-01
    outer loop
      vertex   -7.519045e+01 1.268211e+02 4.809984e+00
      vertex   -7.695390e+01 1.268025e+02 3.951883e+00
      vertex   -7.636608e+01 1.270710e+02 3.517486e+00
    endloop
  endfacet
  facet normal 1.736482e-01 -9.254166e-01 -3.368241e-01
    outer loop
      vertex   -7.519045e+01 1.268211e+02 4.809984e+00
      vertex   -7.636608e+01 1.270710e+02 3.517486e+00
      vertex   -7.342700e+01 1.275579e+02 3.694734e+00
    endloop
  endfacet
  facet normal 1.736482e-01 -9.254166e-01 -3.368241e-01
    outer loop
      vertex   -7.519045e+01 1.268211e+02 4.809984e+00
      vertex   -7.342700e+01 1.275579e+02 3.694734e+00
      vertex   -7.519045e+01 1.255557e+02 8.286845e+00
    endloop
  endfacet
  facet normal 1.736482e-01 -9.254166e-01 -3.368241e-01
    outer loop
      vertex   -7.519045e+01 1.255557e+02 8.286845e+00
      vertex   -7.342700e+01 1.275579e+02 3.694734e+00
      vertex   -7.342700e+01 1.253348e+02 9.802732e+00
    endloop
  endfacet
  facet normal 1.736482e-01 -9.254166e-01 -3.368241e-01
    outer loop
      vertex   -7.519045e+01 1.255557e+02 8.286845e+00
      vertex   -7.342700e+01 1.253348e+02 9.802732e+00
      vertex   -8.341963e+01 1.236791e+02 9.200102e+00
    endloop
  endfacet
  facet normal 1.736482e-01 -9.254166e-01 -3.368241e-01
    outer loop
      vertex   -7.519045e+01 1.255557e+02 8.286845e+00
      vertex   -8.341963e+01 1.236791e+02 9.200102e+00
      vertex   -8.224424e+01 1.243869e+02 7.861449e+00
    endloop
  endfacet
  facet normal 1.736482e-01 -9.254166e-01 -3.368241e-01
    outer loop
      vertex   -8.224424e+01 1.243869e+02 7.861449e+00
      vertex   -8.341963e+01 1.236791e+02 9.200102e+00
      vertex   -8.341963e+01 1.259022e+02 3.092103e+00
    endloop
  endfacet
  facet normal 1.736482e-01 -9.254166e-01 -3.368241e-01
    outer loop
      vertex   -8.224424e+01 1.243869e+02 7.861449e+00
      vertex   -8.341963e+01 1.259022e+02 3.092103e+00
      vertex   -8.224424e+01 1.256524e+02 4.384588e+00
    endloop
  endfacet
  facet normal 1.736482e-01 -9.254166e-01 -3.368241e-01
    outer loop
      vertex   -8.224424e+01 1.256524e+02 4.384588e+00
      vertex   -8.341963e+01 1.259022e+02 3.092103e+00
      vertex   -8.165642e+01 1.261944e+02 3.198438e+00
    endloop
  endfacet
  facet normal 1.736482e-01 -9.254166e-01 -3.368241e-01
    outer loop
      vertex   -8.224424e+01 1.256524e+02 4.384588e+00
      vertex   -8.165642e+01 1.261944e+02 3.198438e+00
      vertex   -8.106861e+01 1.261208e+02 3.703732e+00
    endloop
  endfacet
  facet normal 1.736482e-01 -9.254166e-01 -3.368241e-01
    outer loop
      vertex   -8.106861e+01 1.261208e+02 3.703732e+00
      vertex   -8.106861e+01 1.258472e+02 4.455488e+00
      vertex   -8.224424e+01 1.256524e+02 4.384588e+00
    endloop
  endfacet
  facet normal -2.186752e-08 3.420203e-01 -9.396926e-01
    outer loop
      vertex   -8.224424e+01 1.243869e+02 7.861449e+00
      vertex   -7.871224e+01 1.321668e+02 1.069310e+01
      vertex   -7.519045e+01 1.255557e+02 8.286845e+00
    endloop
  endfacet
  facet normal 2.919841e-07 3.420204e-01 -9.396925e-01
    outer loop
      vertex   -7.519045e+01 1.255557e+02 8.286845e+00
      vertex   -7.871224e+01 1.321668e+02 1.069310e+01
      vertex   -7.319346e+01 1.299544e+02 9.887854e+00
    endloop
  endfacet
  facet normal -9.197962e-01 3.687321e-01 1.342075e-01
    outer loop
      vertex   -7.519045e+01 1.268211e+02 4.809984e+00
      vertex   -7.519045e+01 1.255557e+02 8.286845e+00
      vertex   -7.319346e+01 1.312199e+02 6.410991e+00
    endloop
  endfacet
  facet normal -9.197962e-01 3.687321e-01 1.342075e-01
    outer loop
      vertex   -7.319346e+01 1.312199e+02 6.410991e+00
      vertex   -7.519045e+01 1.255557e+02 8.286845e+00
      vertex   -7.319346e+01 1.299544e+02 9.887854e+00
    endloop
  endfacet
  facet normal 6.206526e-08 3.420198e-01 -9.396927e-01
    outer loop
      vertex   -7.636608e+01 1.270710e+02 3.517486e+00
      vertex   -7.436909e+01 1.314697e+02 5.118492e+00
      vertex   -7.342700e+01 1.275579e+02 3.694734e+00
    endloop
  endfacet
  facet normal -7.352124e-08 3.420198e-01 -9.396928e-01
    outer loop
      vertex   -7.342700e+01 1.275579e+02 3.694734e+00
      vertex   -7.436909e+01 1.314697e+02 5.118492e+00
      vertex   -7.319346e+01 1.316645e+02 5.189391e+00
    endloop
  endfacet
  facet normal -1.612537e-07 3.420198e-01 -9.396928e-01
    outer loop
      vertex   -7.342700e+01 1.275579e+02 3.694734e+00
      vertex   -7.319346e+01 1.316645e+02 5.189391e+00
      vertex   -7.181377e+01 1.311114e+02 4.988080e+00
    endloop
  endfacet
  facet normal -1.096662e-14 -3.420201e-01 9.396926e-01
    outer loop
      vertex   -8.341963e+01 1.236791e+02 9.200102e+00
      vertex   -7.342700e+01 1.253348e+02 9.802732e+00
      vertex   -8.350663e+01 1.241145e+02 9.358579e+00
    endloop
  endfacet
  facet normal -1.642387e-14 -3.420201e-01 9.396926e-01
    outer loop
      vertex   -8.350663e+01 1.241145e+02 9.358579e+00
      vertex   -7.342700e+01 1.253348e+02 9.802732e+00
      vertex   -8.362078e+01 1.245444e+02 9.515028e+00
    endloop
  endfacet
  facet normal -1.437107e-14 -3.420201e-01 9.396926e-01
    outer loop
      vertex   -8.362078e+01 1.245444e+02 9.515028e+00
      vertex   -7.342700e+01 1.253348e+02 9.802732e+00
      vertex   -8.376167e+01 1.249671e+02 9.668905e+00
    endloop
  endfacet
  facet normal -1.509042e-14 -3.420201e-01 9.396926e-01
    outer loop
      vertex   -8.376167e+01 1.249671e+02 9.668905e+00
      vertex   -7.342700e+01 1.253348e+02 9.802732e+00
      vertex   -8.392882e+01 1.253814e+02 9.819677e+00
    endloop
  endfacet
  facet normal -1.516449e-14 -3.420201e-01 9.396926e-01
    outer loop
      vertex   -8.392882e+01 1.253814e+02 9.819677e+00
      vertex   -7.342700e+01 1.253348e+02 9.802732e+00
      vertex   -8.412164e+01 1.257856e+02 9.966819e+00
    endloop
  endfacet
  facet normal -1.530456e-14 -3.420201e-01 9.396926e-01
    outer loop
      vertex   -8.412164e+01 1.257856e+02 9.966819e+00
      vertex   -7.342700e+01 1.253348e+02 9.802732e+00
      vertex   -8.433948e+01 1.261785e+02 1.010982e+01
    endloop
  endfacet
  facet normal -1.290140e-14 -3.420201e-01 9.396926e-01
    outer loop
      vertex   -8.433948e+01 1.261785e+02 1.010982e+01
      vertex   -7.342700e+01 1.253348e+02 9.802732e+00
      vertex   -8.458156e+01 1.265587e+02 1.024819e+01
    endloop
  endfacet
  facet normal -1.605087e-14 -3.420201e-01 9.396926e-01
    outer loop
      vertex   -8.458156e+01 1.265587e+02 1.024819e+01
      vertex   -7.342700e+01 1.253348e+02 9.802732e+00
      vertex   -7.181377e+01 1.288883e+02 1.109608e+01
    endloop
  endfacet
  facet normal -1.482302e-14 -3.420201e-01 9.396926e-01
    outer loop
      vertex   -8.458156e+01 1.265587e+02 1.024819e+01
      vertex   -7.181377e+01 1.288883e+02 1.109608e+01
      vertex   -8.484705e+01 1.269248e+02 1.038143e+01
    endloop
  endfacet
  facet normal -1.713276e-14 -3.420201e-01 9.396926e-01
    outer loop
      vertex   -8.484705e+01 1.269248e+02 1.038143e+01
      vertex   -7.181377e+01 1.288883e+02 1.109608e+01
      vertex   -8.020019e+01 1.322502e+02 1.231974e+01
    endloop
  endfacet
  facet normal -2.737128e-14 -3.420201e-01 9.396926e-01
    outer loop
      vertex   -8.484705e+01 1.269248e+02 1.038143e+01
      vertex   -8.020019e+01 1.322502e+02 1.231974e+01
      vertex   -8.513503e+01 1.272755e+02 1.050910e+01
    endloop
  endfacet
  facet normal -6.412449e-15 -3.420201e-01 9.396926e-01
    outer loop
      vertex   -8.513503e+01 1.272755e+02 1.050910e+01
      vertex   -8.020019e+01 1.322502e+02 1.231974e+01
      vertex   -8.544450e+01 1.276098e+02 1.063074e+01
    endloop
  endfacet
  facet normal -1.896463e-14 -3.420201e-01 9.396926e-01
    outer loop
      vertex   -8.544450e+01 1.276098e+02 1.063074e+01
      vertex   -8.020019e+01 1.322502e+02 1.231974e+01
      vertex   -8.577439e+01 1.279263e+02 1.074594e+01
    endloop
  endfacet
  facet normal -2.276407e-14 -3.420201e-01 9.396926e-01
    outer loop
      vertex   -8.577439e+01 1.279263e+02 1.074594e+01
      vertex   -8.020019e+01 1.322502e+02 1.231974e+01
      vertex   -8.612354e+01 1.282240e+02 1.085429e+01
    endloop
  endfacet
  facet normal -2.309657e-14 -3.420201e-01 9.396926e-01
    outer loop
      vertex   -8.612354e+01 1.282240e+02 1.085429e+01
      vertex   -8.020019e+01 1.322502e+02 1.231974e+01
      vertex   -8.632404e+01 1.312356e+02 1.195043e+01
    endloop
  endfacet
  facet normal -1.932218e-14 -3.420201e-01 9.396926e-01
    outer loop
      vertex   -8.612354e+01 1.282240e+02 1.085429e+01
      vertex   -8.632404e+01 1.312356e+02 1.195043e+01
      vertex   -8.649074e+01 1.285018e+02 1.095542e+01
    endloop
  endfacet
  facet normal 1.417922e-08 -3.420201e-01 9.396926e-01
    outer loop
      vertex   -8.649074e+01 1.285018e+02 1.095542e+01
      vertex   -8.632404e+01 1.312356e+02 1.195043e+01
      vertex   -8.687473e+01 1.287588e+02 1.104898e+01
    endloop
  endfacet
  facet normal 2.261649e-09 -3.420201e-01 9.396926e-01
    outer loop
      vertex   -8.687473e+01 1.287588e+02 1.104898e+01
      vertex   -8.632404e+01 1.312356e+02 1.195043e+01
      vertex   -8.765615e+01 1.329232e+02 1.256468e+01
    endloop
  endfacet
  facet normal -2.217676e-14 -3.420201e-01 9.396926e-01
    outer loop
      vertex   -8.765615e+01 1.329232e+02 1.256468e+01
      vertex   -8.632404e+01 1.312356e+02 1.195043e+01
      vertex   -8.667134e+01 1.330864e+02 1.262408e+01
    endloop
  endfacet
  facet normal 6.503927e-01 -1.888713e-02 -7.593633e-01
    outer loop
      vertex   -8.165642e+01 1.261944e+02 3.198438e+00
      vertex   -7.969298e+01 1.305192e+02 4.772553e+00
      vertex   -8.106861e+01 1.261208e+02 3.703732e+00
    endloop
  endfacet
  facet normal 6.503927e-01 -1.888713e-02 -7.593633e-01
    outer loop
      vertex   -8.106861e+01 1.261208e+02 3.703732e+00
      vertex   -7.969298e+01 1.305192e+02 4.772553e+00
      vertex   -7.779244e+01 1.333371e+02 6.330273e+00
    endloop
  endfacet
  facet normal 6.503929e-01 -1.888738e-02 -7.593631e-01
    outer loop
      vertex   -7.779244e+01 1.333371e+02 6.330273e+00
      vertex   -7.969298e+01 1.305192e+02 4.772553e+00
      vertex   -7.963674e+01 1.306548e+02 4.817350e+00
    endloop
  endfacet
  facet normal 6.503932e-01 -1.888769e-02 -7.593629e-01
    outer loop
      vertex   -7.779244e+01 1.333371e+02 6.330273e+00
      vertex   -7.963674e+01 1.306548e+02 4.817350e+00
      vertex   -7.959081e+01 1.307911e+02 4.853299e+00
    endloop
  endfacet
  facet normal 6.503933e-01 -1.888789e-02 -7.593627e-01
    outer loop
      vertex   -7.959081e+01 1.307911e+02 4.853299e+00
      vertex   -7.955539e+01 1.309275e+02 4.880248e+00
      vertex   -7.779244e+01 1.333371e+02 6.330273e+00
    endloop
  endfacet
  facet normal 6.503934e-01 -1.888802e-02 -7.593626e-01
    outer loop
      vertex   -7.779244e+01 1.333371e+02 6.330273e+00
      vertex   -7.955539e+01 1.309275e+02 4.880248e+00
      vertex   -7.953062e+01 1.310634e+02 4.898080e+00
    endloop
  endfacet
  facet normal 6.503935e-01 -1.888813e-02 -7.593626e-01
    outer loop
      vertex   -7.779244e+01 1.333371e+02 6.330273e+00
      vertex   -7.953062e+01 1.310634e+02 4.898080e+00
      vertex   -7.951662e+01 1.311982e+02 4.906720e+00
    endloop
  endfacet
  facet normal 6.503936e-01 -1.888821e-02 -7.593625e-01
    outer loop
      vertex   -7.951662e+01 1.311982e+02 4.906720e+00
      vertex   -7.951344e+01 1.313314e+02 4.906131e+00
      vertex   -7.779244e+01 1.333371e+02 6.330273e+00
    endloop
  endfacet
  facet normal 6.503936e-01 -1.888828e-02 -7.593625e-01
    outer loop
      vertex   -7.779244e+01 1.333371e+02 6.330273e+00
      vertex   -7.951344e+01 1.313314e+02 4.906131e+00
      vertex   -7.952110e+01 1.314623e+02 4.896314e+00
    endloop
  endfacet
  facet normal 6.503937e-01 -1.888834e-02 -7.593624e-01
    outer loop
      vertex   -7.779244e+01 1.333371e+02 6.330273e+00
      vertex   -7.952110e+01 1.314623e+02 4.896314e+00
      vertex   -7.953956e+01 1.315905e+02 4.877312e+00
    endloop
  endfacet
  facet normal 6.503939e-01 -1.888872e-02 -7.593622e-01
    outer loop
      vertex   -7.779244e+01 1.333371e+02 6.330273e+00
      vertex   -7.953956e+01 1.315905e+02 4.877312e+00
      vertex   -7.917214e+01 1.344033e+02 5.122045e+00
    endloop
  endfacet
  facet normal 6.503932e-01 -1.888859e-02 -7.593628e-01
    outer loop
      vertex   -7.917214e+01 1.344033e+02 5.122045e+00
      vertex   -7.953956e+01 1.315905e+02 4.877312e+00
      vertex   -7.956875e+01 1.317153e+02 4.849207e+00
    endloop
  endfacet
  facet normal 6.503934e-01 -1.888863e-02 -7.593627e-01
    outer loop
      vertex   -7.917214e+01 1.344033e+02 5.122045e+00
      vertex   -7.956875e+01 1.317153e+02 4.849207e+00
      vertex   -7.960854e+01 1.318363e+02 4.812118e+00
    endloop
  endfacet
  facet normal 6.503935e-01 -1.888866e-02 -7.593626e-01
    outer loop
      vertex   -7.960854e+01 1.318363e+02 4.812118e+00
      vertex   -7.965876e+01 1.319529e+02 4.766205e+00
      vertex   -7.917214e+01 1.344033e+02 5.122045e+00
    endloop
  endfacet
  facet normal 6.503936e-01 -1.888869e-02 -7.593625e-01
    outer loop
      vertex   -7.917214e+01 1.344033e+02 5.122045e+00
      vertex   -7.965876e+01 1.319529e+02 4.766205e+00
      vertex   -7.971919e+01 1.320647e+02 4.711664e+00
    endloop
  endfacet
  facet normal 6.503937e-01 -1.888871e-02 -7.593624e-01
    outer loop
      vertex   -7.917214e+01 1.344033e+02 5.122045e+00
      vertex   -7.971919e+01 1.320647e+02 4.711664e+00
      vertex   -7.978958e+01 1.321710e+02 4.648728e+00
    endloop
  endfacet
  facet normal 6.503937e-01 -1.888873e-02 -7.593624e-01
    outer loop
      vertex   -7.978958e+01 1.321710e+02 4.648728e+00
      vertex   -7.986963e+01 1.322716e+02 4.577668e+00
      vertex   -7.917214e+01 1.344033e+02 5.122045e+00
    endloop
  endfacet
  facet normal 6.503938e-01 -1.888876e-02 -7.593623e-01
    outer loop
      vertex   -7.917214e+01 1.344033e+02 5.122045e+00
      vertex   -7.986963e+01 1.322716e+02 4.577668e+00
      vertex   -7.995898e+01 1.323659e+02 4.498788e+00
    endloop
  endfacet
  facet normal 6.503938e-01 -1.888878e-02 -7.593623e-01
    outer loop
      vertex   -7.917214e+01 1.344033e+02 5.122045e+00
      vertex   -7.995898e+01 1.323659e+02 4.498788e+00
      vertex   -8.005727e+01 1.324536e+02 4.412424e+00
    endloop
  endfacet
  facet normal 1.792173e-14 -3.420201e-01 9.396926e-01
    outer loop
      vertex   -8.224424e+01 1.256524e+02 4.384588e+00
      vertex   -8.106861e+01 1.258472e+02 4.455488e+00
      vertex   -7.871224e+01 1.334322e+02 7.216236e+00
    endloop
  endfacet
  facet normal 1.210071e-14 -3.420201e-01 9.396926e-01
    outer loop
      vertex   -7.871224e+01 1.334322e+02 7.216236e+00
      vertex   -8.106861e+01 1.258472e+02 4.455488e+00
      vertex   -7.779244e+01 1.330635e+02 7.082029e+00
    endloop
  endfacet
  facet normal 9.197962e-01 -3.687321e-01 -1.342075e-01
    outer loop
      vertex   -8.106861e+01 1.258472e+02 4.455488e+00
      vertex   -8.106861e+01 1.261208e+02 3.703732e+00
      vertex   -7.779244e+01 1.330635e+02 7.082029e+00
    endloop
  endfacet
  facet normal 9.197962e-01 -3.687321e-01 -1.342075e-01
    outer loop
      vertex   -7.779244e+01 1.330635e+02 7.082029e+00
      vertex   -8.106861e+01 1.261208e+02 3.703732e+00
      vertex   -7.779244e+01 1.333371e+02 6.330273e+00
    endloop
  endfacet
  facet normal -1.736482e-01 9.254166e-01 3.368241e-01
    outer loop
      vertex   -8.020019e+01 1.344734e+02 6.211741e+00
      vertex   -8.632404e+01 1.334587e+02 5.842427e+00
      vertex   -8.020019e+01 1.322502e+02 1.231974e+01
    endloop
  endfacet
  facet normal -1.736482e-01 9.254166e-01 3.368241e-01
    outer loop
      vertex   -8.020019e+01 1.322502e+02 1.231974e+01
      vertex   -8.632404e+01 1.334587e+02 5.842427e+00
      vertex   -8.632404e+01 1.312356e+02 1.195043e+01
    endloop
  endfacet
  facet normal 3.723688e-03 3.091665e-01 -9.510006e-01
    outer loop
      vertex   -8.532617e+01 1.297111e+02 4.473802e+00
      vertex   -8.301025e+01 1.301958e+02 4.640427e+00
      vertex   -8.522706e+01 1.296023e+02 4.438807e+00
    endloop
  endfacet
  facet normal 1.213034e-02 2.807250e-01 -9.597116e-01
    outer loop
      vertex   -8.522706e+01 1.296023e+02 4.438807e+00
      vertex   -8.301025e+01 1.301958e+02 4.640427e+00
      vertex   -7.963674e+01 1.306548e+02 4.817350e+00
    endloop
  endfacet
  facet normal 5.681618e-03 3.115582e-01 -9.502101e-01
    outer loop
      vertex   -8.522706e+01 1.296023e+02 4.438807e+00
      vertex   -7.963674e+01 1.306548e+02 4.817350e+00
      vertex   -7.969298e+01 1.305192e+02 4.772553e+00
    endloop
  endfacet
  facet normal 1.756831e-02 2.489742e-01 -9.683508e-01
    outer loop
      vertex   -8.532617e+01 1.297111e+02 4.473802e+00
      vertex   -8.542895e+01 1.298226e+02 4.500604e+00
      vertex   -8.301025e+01 1.301958e+02 4.640427e+00
    endloop
  endfacet
  facet normal 2.807002e-02 1.860695e-01 -9.821355e-01
    outer loop
      vertex   -8.301025e+01 1.301958e+02 4.640427e+00
      vertex   -8.542895e+01 1.298226e+02 4.500604e+00
      vertex   -8.553474e+01 1.299360e+02 4.519073e+00
    endloop
  endfacet
  facet normal 2.919702e-02 1.759683e-01 -9.839627e-01
    outer loop
      vertex   -8.301025e+01 1.301958e+02 4.640427e+00
      vertex   -8.553474e+01 1.299360e+02 4.519073e+00
      vertex   -8.305003e+01 1.304215e+02 4.679624e+00
    endloop
  endfacet
  facet normal 3.984107e-02 1.239795e-01 -9.914846e-01
    outer loop
      vertex   -8.305003e+01 1.304215e+02 4.679624e+00
      vertex   -8.553474e+01 1.299360e+02 4.519073e+00
      vertex   -8.564287e+01 1.300507e+02 4.529069e+00
    endloop
  endfacet
  facet normal 4.900195e-02 6.210605e-02 -9.968659e-01
    outer loop
      vertex   -8.305003e+01 1.304215e+02 4.679624e+00
      vertex   -8.564287e+01 1.300507e+02 4.529069e+00
      vertex   -8.308872e+01 1.306505e+02 4.691989e+00
    endloop
  endfacet
  facet normal 4.967005e-02 5.929851e-02 -9.970038e-01
    outer loop
      vertex   -8.308872e+01 1.306505e+02 4.691989e+00
      vertex   -8.564287e+01 1.300507e+02 4.529069e+00
      vertex   -8.575266e+01 1.301660e+02 4.530452e+00
    endloop
  endfacet
  facet normal 6.139803e-02 -4.809053e-03 -9.981018e-01
    outer loop
      vertex   -8.308872e+01 1.306505e+02 4.691989e+00
      vertex   -8.575266e+01 1.301660e+02 4.530452e+00
      vertex   -8.586345e+01 1.302810e+02 4.523083e+00
    endloop
  endfacet
  facet normal 6.766408e-02 -5.267565e-02 -9.963166e-01
    outer loop
      vertex   -8.308872e+01 1.306505e+02 4.691989e+00
      vertex   -8.586345e+01 1.302810e+02 4.523083e+00
      vertex   -8.312580e+01 1.308797e+02 4.677356e+00
    endloop
  endfacet
  facet normal 7.171185e-02 -7.156239e-02 -9.948549e-01
    outer loop
      vertex   -8.312580e+01 1.308797e+02 4.677356e+00
      vertex   -8.586345e+01 1.302810e+02 4.523083e+00
      vertex   -8.597455e+01 1.303952e+02 4.506860e+00
    endloop
  endfacet
  facet normal 8.231071e-02 -1.365765e-01 -9.872040e-01
    outer loop
      vertex   -8.312580e+01 1.308797e+02 4.677356e+00
      vertex   -8.597455e+01 1.303952e+02 4.506860e+00
      vertex   -8.608518e+01 1.305080e+02 4.482034e+00
    endloop
  endfacet
  facet normal 8.576702e-02 -1.666860e-01 -9.822728e-01
    outer loop
      vertex   -8.312580e+01 1.308797e+02 4.677356e+00
      vertex   -8.608518e+01 1.305080e+02 4.482034e+00
      vertex   -8.316078e+01 1.311058e+02 4.635922e+00
    endloop
  endfacet
  facet normal 9.217680e-02 -1.997832e-01 -9.754948e-01
    outer loop
      vertex   -8.316078e+01 1.311058e+02 4.635922e+00
      vertex   -8.608518e+01 1.305080e+02 4.482034e+00
      vertex   -8.619452e+01 1.306189e+02 4.448993e+00
    endloop
  endfacet
  facet normal 1.011368e-01 -2.616004e-01 -9.598628e-01
    outer loop
      vertex   -8.316078e+01 1.311058e+02 4.635922e+00
      vertex   -8.619452e+01 1.306189e+02 4.448993e+00
      vertex   -8.630174e+01 1.307274e+02 4.408127e+00
    endloop
  endfacet
  facet normal 1.028073e-01 -2.784262e-01 -9.549395e-01
    outer loop
      vertex   -8.316078e+01 1.311058e+02 4.635922e+00
      vertex   -8.630174e+01 1.307274e+02 4.408127e+00
      vertex   -8.319317e+01 1.313260e+02 4.568248e+00
    endloop
  endfacet
  facet normal 1.103126e-01 -3.212487e-01 -9.405479e-01
    outer loop
      vertex   -8.319317e+01 1.313260e+02 4.568248e+00
      vertex   -8.630174e+01 1.307274e+02 4.408127e+00
      vertex   -8.640603e+01 1.308330e+02 4.359821e+00
    endloop
  endfacet
  facet normal 1.179080e-01 -3.806232e-01 -9.171825e-01
    outer loop
      vertex   -8.319317e+01 1.313260e+02 4.568248e+00
      vertex   -8.640603e+01 1.308330e+02 4.359821e+00
      vertex   -8.650656e+01 1.309352e+02 4.304463e+00
    endloop
  endfacet
  facet normal 1.183928e-01 -3.864118e-01 -9.146961e-01
    outer loop
      vertex   -8.319317e+01 1.313260e+02 4.568248e+00
      vertex   -8.650656e+01 1.309352e+02 4.304463e+00
      vertex   -8.322255e+01 1.315371e+02 4.475249e+00
    endloop
  endfacet
  facet normal 1.265225e-01 -4.377293e-01 -8.901602e-01
    outer loop
      vertex   -8.322255e+01 1.315371e+02 4.475249e+00
      vertex   -8.650656e+01 1.309352e+02 4.304463e+00
      vertex   -8.660260e+01 1.310337e+02 4.242373e+00
    endloop
  endfacet
  facet normal 1.322532e-01 -4.891924e-01 -8.620904e-01
    outer loop
      vertex   -8.322255e+01 1.315371e+02 4.475249e+00
      vertex   -8.660260e+01 1.310337e+02 4.242373e+00
      vertex   -8.324851e+01 1.317364e+02 4.358182e+00
    endloop
  endfacet
  facet normal 1.332936e-01 -4.947042e-01 -8.587785e-01
    outer loop
      vertex   -8.324851e+01 1.317364e+02 4.358182e+00
      vertex   -8.660260e+01 1.310337e+02 4.242373e+00
      vertex   -8.669643e+01 1.311313e+02 4.171600e+00
    endloop
  endfacet
  facet normal 1.409467e-01 -5.491010e-01 -8.237852e-01
    outer loop
      vertex   -8.324851e+01 1.317364e+02 4.358182e+00
      vertex   -8.669643e+01 1.311313e+02 4.171600e+00
      vertex   -8.678780e+01 1.312285e+02 4.091191e+00
    endloop
  endfacet
  facet normal 1.472680e-01 -6.036056e-01 -7.835639e-01
    outer loop
      vertex   -8.687473e+01 1.313240e+02 4.001281e+00
      vertex   -8.005727e+01 1.324536e+02 4.412424e+00
      vertex   -8.678780e+01 1.312285e+02 4.091191e+00
    endloop
  endfacet
  facet normal 1.435496e-01 -5.779995e-01 -8.033119e-01
    outer loop
      vertex   -8.678780e+01 1.312285e+02 4.091191e+00
      vertex   -8.005727e+01 1.324536e+02 4.412424e+00
      vertex   -8.324851e+01 1.317364e+02 4.358182e+00
    endloop
  endfacet
  facet normal 1.490611e-01 -6.040703e-01 -7.828665e-01
    outer loop
      vertex   -8.005727e+01 1.324536e+02 4.412424e+00
      vertex   -7.995898e+01 1.323659e+02 4.498788e+00
      vertex   -8.324851e+01 1.317364e+02 4.358182e+00
    endloop
  endfacet
  facet normal 1.409487e-01 -5.531441e-01 -8.210756e-01
    outer loop
      vertex   -8.324851e+01 1.317364e+02 4.358182e+00
      vertex   -7.995898e+01 1.323659e+02 4.498788e+00
      vertex   -7.986963e+01 1.322716e+02 4.577668e+00
    endloop
  endfacet
  facet normal 1.345485e-01 -4.981792e-01 -8.565712e-01
    outer loop
      vertex   -8.324851e+01 1.317364e+02 4.358182e+00
      vertex   -7.986963e+01 1.322716e+02 4.577668e+00
      vertex   -7.978958e+01 1.321710e+02 4.648728e+00
    endloop
  endfacet
  facet normal 1.338418e-01 -4.889292e-01 -8.619946e-01
    outer loop
      vertex   -8.324851e+01 1.317364e+02 4.358182e+00
      vertex   -7.978958e+01 1.321710e+02 4.648728e+00
      vertex   -8.322255e+01 1.315371e+02 4.475249e+00
    endloop
  endfacet
  facet normal 1.264594e-01 -4.417887e-01 -8.881614e-01
    outer loop
      vertex   -8.322255e+01 1.315371e+02 4.475249e+00
      vertex   -7.978958e+01 1.321710e+02 4.648728e+00
      vertex   -7.971919e+01 1.320647e+02 4.711664e+00
    endloop
  endfacet
  facet normal 1.198686e-01 -3.861673e-01 -9.146072e-01
    outer loop
      vertex   -8.322255e+01 1.315371e+02 4.475249e+00
      vertex   -7.971919e+01 1.320647e+02 4.711664e+00
      vertex   -8.319317e+01 1.313260e+02 4.568248e+00
    endloop
  endfacet
  facet normal 1.192012e-01 -3.827313e-01 -9.161374e-01
    outer loop
      vertex   -8.319317e+01 1.313260e+02 4.568248e+00
      vertex   -7.971919e+01 1.320647e+02 4.711664e+00
      vertex   -7.965876e+01 1.319529e+02 4.766205e+00
    endloop
  endfacet
  facet normal 1.099104e-01 -3.227993e-01 -9.400640e-01
    outer loop
      vertex   -8.319317e+01 1.313260e+02 4.568248e+00
      vertex   -7.965876e+01 1.319529e+02 4.766205e+00
      vertex   -7.960854e+01 1.318363e+02 4.812118e+00
    endloop
  endfacet
  facet normal 1.045567e-01 -2.781364e-01 -9.548341e-01
    outer loop
      vertex   -8.319317e+01 1.313260e+02 4.568248e+00
      vertex   -7.960854e+01 1.318363e+02 4.812118e+00
      vertex   -8.316078e+01 1.311058e+02 4.635922e+00
    endloop
  endfacet
  facet normal 1.012855e-01 -2.609791e-01 -9.600162e-01
    outer loop
      vertex   -8.316078e+01 1.311058e+02 4.635922e+00
      vertex   -7.960854e+01 1.318363e+02 4.812118e+00
      vertex   -7.956875e+01 1.317153e+02 4.849207e+00
    endloop
  endfacet
  facet normal 9.158535e-02 -1.982668e-01 -9.758598e-01
    outer loop
      vertex   -8.316078e+01 1.311058e+02 4.635922e+00
      vertex   -7.956875e+01 1.317153e+02 4.849207e+00
      vertex   -7.953956e+01 1.315905e+02 4.877312e+00
    endloop
  endfacet
  facet normal 8.773473e-02 -1.663600e-01 -9.821542e-01
    outer loop
      vertex   -8.316078e+01 1.311058e+02 4.635922e+00
      vertex   -7.953956e+01 1.315905e+02 4.877312e+00
      vertex   -8.312580e+01 1.308797e+02 4.677356e+00
    endloop
  endfacet
  facet normal 8.174321e-02 -1.346218e-01 -9.875196e-01
    outer loop
      vertex   -8.312580e+01 1.308797e+02 4.677356e+00
      vertex   -7.953956e+01 1.315905e+02 4.877312e+00
      vertex   -7.952110e+01 1.314623e+02 4.896314e+00
    endloop
  endfacet
  facet normal 7.181053e-02 -7.038363e-02 -9.949319e-01
    outer loop
      vertex   -8.312580e+01 1.308797e+02 4.677356e+00
      vertex   -7.952110e+01 1.314623e+02 4.896314e+00
      vertex   -7.951344e+01 1.313314e+02 4.906131e+00
    endloop
  endfacet
  facet normal 6.963571e-02 -5.234898e-02 -9.961980e-01
    outer loop
      vertex   -8.312580e+01 1.308797e+02 4.677356e+00
      vertex   -7.951344e+01 1.313314e+02 4.906131e+00
      vertex   -8.308872e+01 1.306505e+02 4.691989e+00
    endloop
  endfacet
  facet normal 6.090123e-02 -5.873634e-03 -9.981265e-01
    outer loop
      vertex   -8.308872e+01 1.306505e+02 4.691989e+00
      vertex   -7.951344e+01 1.313314e+02 4.906131e+00
      vertex   -7.951662e+01 1.311982e+02 4.906720e+00
    endloop
  endfacet
  facet normal 5.094768e-02 5.860051e-02 -9.969806e-01
    outer loop
      vertex   -8.308872e+01 1.306505e+02 4.691989e+00
      vertex   -7.951662e+01 1.311982e+02 4.906720e+00
      vertex   -7.953062e+01 1.310634e+02 4.898080e+00
    endloop
  endfacet
  facet normal 5.050027e-02 6.235432e-02 -9.967756e-01
    outer loop
      vertex   -8.308872e+01 1.306505e+02 4.691989e+00
      vertex   -7.953062e+01 1.310634e+02 4.898080e+00
      vertex   -8.305003e+01 1.304215e+02 4.679624e+00
    endloop
  endfacet
  facet normal 3.912081e-02 1.230023e-01 -9.916350e-01
    outer loop
      vertex   -8.305003e+01 1.304215e+02 4.679624e+00
      vertex   -7.953062e+01 1.310634e+02 4.898080e+00
      vertex   -7.955539e+01 1.309275e+02 4.880248e+00
    endloop
  endfacet
  facet normal 3.096355e-02 1.762610e-01 -9.838563e-01
    outer loop
      vertex   -8.305003e+01 1.304215e+02 4.679624e+00
      vertex   -7.955539e+01 1.309275e+02 4.880248e+00
      vertex   -8.301025e+01 1.301958e+02 4.640427e+00
    endloop
  endfacet
  facet normal 2.864302e-02 1.866143e-01 -9.820156e-01
    outer loop
      vertex   -8.301025e+01 1.301958e+02 4.640427e+00
      vertex   -7.955539e+01 1.309275e+02 4.880248e+00
      vertex   -7.959081e+01 1.307911e+02 4.853299e+00
    endloop
  endfacet
  facet normal 1.679027e-02 2.497400e-01 -9.681673e-01
    outer loop
      vertex   -8.301025e+01 1.301958e+02 4.640427e+00
      vertex   -7.959081e+01 1.307911e+02 4.853299e+00
      vertex   -7.963674e+01 1.306548e+02 4.817350e+00
    endloop
  endfacet
  facet normal 1.682108e-07 3.420202e-01 -9.396926e-01
    outer loop
      vertex   -8.765615e+01 1.354884e+02 5.516990e+00
      vertex   -8.356843e+01 1.361657e+02 5.763509e+00
      vertex   -8.687473e+01 1.313240e+02 4.001281e+00
    endloop
  endfacet
  facet normal 5.216840e-08 3.420202e-01 -9.396926e-01
    outer loop
      vertex   -8.687473e+01 1.313240e+02 4.001281e+00
      vertex   -8.356843e+01 1.361657e+02 5.763509e+00
      vertex   -7.917214e+01 1.344033e+02 5.122045e+00
    endloop
  endfacet
  facet normal -6.789871e-08 3.420205e-01 -9.396925e-01
    outer loop
      vertex   -8.687473e+01 1.313240e+02 4.001281e+00
      vertex   -7.917214e+01 1.344033e+02 5.122045e+00
      vertex   -8.005727e+01 1.324536e+02 4.412424e+00
    endloop
  endfacet
  facet normal 9.197962e-01 -3.687321e-01 -1.342075e-01
    outer loop
      vertex   -8.224424e+01 1.256524e+02 4.384588e+00
      vertex   -7.871224e+01 1.334322e+02 7.216236e+00
      vertex   -8.224424e+01 1.243869e+02 7.861449e+00
    endloop
  endfacet
  facet normal 9.197962e-01 -3.687321e-01 -1.342075e-01
    outer loop
      vertex   -8.224424e+01 1.243869e+02 7.861449e+00
      vertex   -7.871224e+01 1.334322e+02 7.216236e+00
      vertex   -7.871224e+01 1.321668e+02 1.069310e+01
    endloop
  endfacet
  facet normal -5.615781e-01 -7.775240e-01 -2.829956e-01
    outer loop
      vertex   -8.687473e+01 1.313240e+02 4.001281e+00
      vertex   -8.678780e+01 1.312285e+02 4.091191e+00
      vertex   -8.687473e+01 1.287588e+02 1.104898e+01
    endloop
  endfacet
  facet normal -5.724286e-01 -7.704411e-01 -2.806171e-01
    outer loop
      vertex   -8.687473e+01 1.287588e+02 1.104898e+01
      vertex   -8.678780e+01 1.312285e+02 4.091191e+00
      vertex   -8.669643e+01 1.311313e+02 4.171600e+00
    endloop
  endfacet
  facet normal -5.802002e-01 -7.651941e-01 -2.790085e-01
    outer loop
      vertex   -8.687473e+01 1.287588e+02 1.104898e+01
      vertex   -8.669643e+01 1.311313e+02 4.171600e+00
      vertex   -8.649074e+01 1.285018e+02 1.095542e+01
    endloop
  endfacet
  facet normal -5.837068e-01 -7.628878e-01 -2.780083e-01
    outer loop
      vertex   -8.649074e+01 1.285018e+02 1.095542e+01
      vertex   -8.669643e+01 1.311313e+02 4.171600e+00
      vertex   -8.660260e+01 1.310337e+02 4.242373e+00
    endloop
  endfacet
  facet normal -5.962044e-01 -7.544096e-01 -2.746023e-01
    outer loop
      vertex   -8.649074e+01 1.285018e+02 1.095542e+01
      vertex   -8.660260e+01 1.310337e+02 4.242373e+00
      vertex   -8.650656e+01 1.309352e+02 4.304463e+00
    endloop
  endfacet
  facet normal -6.088540e-01 -7.454504e-01 -2.712943e-01
    outer loop
      vertex   -8.650656e+01 1.309352e+02 4.304463e+00
      vertex   -8.640603e+01 1.308330e+02 4.359821e+00
      vertex   -8.649074e+01 1.285018e+02 1.095542e+01
    endloop
  endfacet
  facet normal -6.213645e-01 -7.361953e-01 -2.681838e-01
    outer loop
      vertex   -8.649074e+01 1.285018e+02 1.095542e+01
      vertex   -8.640603e+01 1.308330e+02 4.359821e+00
      vertex   -8.630174e+01 1.307274e+02 4.408127e+00
    endloop
  endfacet
  facet normal -6.271700e-01 -7.317475e-01 -2.668395e-01
    outer loop
      vertex   -8.649074e+01 1.285018e+02 1.095542e+01
      vertex   -8.630174e+01 1.307274e+02 4.408127e+00
      vertex   -8.612354e+01 1.282240e+02 1.085429e+01
    endloop
  endfacet
  facet normal -6.342198e-01 -7.264676e-01 -2.645942e-01
    outer loop
      vertex   -8.612354e+01 1.282240e+02 1.085429e+01
      vertex   -8.630174e+01 1.307274e+02 4.408127e+00
      vertex   -8.619452e+01 1.306189e+02 4.448993e+00
    endloop
  endfacet
  facet normal -6.474897e-01 -7.161373e-01 -2.605847e-01
    outer loop
      vertex   -8.612354e+01 1.282240e+02 1.085429e+01
      vertex   -8.619452e+01 1.306189e+02 4.448993e+00
      vertex   -8.608518e+01 1.305080e+02 4.482034e+00
    endloop
  endfacet
  facet normal -6.611067e-01 -7.050195e-01 -2.566817e-01
    outer loop
      vertex   -8.608518e+01 1.305080e+02 4.482034e+00
      vertex   -8.597455e+01 1.303952e+02 4.506860e+00
      vertex   -8.612354e+01 1.282240e+02 1.085429e+01
    endloop
  endfacet
  facet normal -6.719617e-01 -6.957516e-01 -2.537662e-01
    outer loop
      vertex   -8.612354e+01 1.282240e+02 1.085429e+01
      vertex   -8.597455e+01 1.303952e+02 4.506860e+00
      vertex   -8.577439e+01 1.279263e+02 1.074594e+01
    endloop
  endfacet
  facet normal -6.753312e-01 -6.929291e-01 -2.525412e-01
    outer loop
      vertex   -8.577439e+01 1.279263e+02 1.074594e+01
      vertex   -8.597455e+01 1.303952e+02 4.506860e+00
      vertex   -8.586345e+01 1.302810e+02 4.523083e+00
    endloop
  endfacet
  facet normal -6.899473e-01 -6.802238e-01 -2.475243e-01
    outer loop
      vertex   -8.577439e+01 1.279263e+02 1.074594e+01
      vertex   -8.586345e+01 1.302810e+02 4.523083e+00
      vertex   -8.575266e+01 1.301660e+02 4.530452e+00
    endloop
  endfacet
  facet normal -7.037105e-01 -6.676274e-01 -2.430334e-01
    outer loop
      vertex   -8.575266e+01 1.301660e+02 4.530452e+00
      vertex   -8.564287e+01 1.300507e+02 4.529069e+00
      vertex   -8.577439e+01 1.279263e+02 1.074594e+01
    endloop
  endfacet
  facet normal -7.144197e-01 -6.573611e-01 -2.397516e-01
    outer loop
      vertex   -8.577439e+01 1.279263e+02 1.074594e+01
      vertex   -8.564287e+01 1.300507e+02 4.529069e+00
      vertex   -8.544450e+01 1.276098e+02 1.063074e+01
    endloop
  endfacet
  facet normal -7.168674e-01 -6.550568e-01 -2.387502e-01
    outer loop
      vertex   -8.544450e+01 1.276098e+02 1.063074e+01
      vertex   -8.564287e+01 1.300507e+02 4.529069e+00
      vertex   -8.553474e+01 1.299360e+02 4.519073e+00
    endloop
  endfacet
  facet normal -7.297705e-01 -6.424833e-01 -2.337738e-01
    outer loop
      vertex   -8.544450e+01 1.276098e+02 1.063074e+01
      vertex   -8.553474e+01 1.299360e+02 4.519073e+00
      vertex   -8.542895e+01 1.298226e+02 4.500604e+00
    endloop
  endfacet
  facet normal -7.425123e-01 -6.294364e-01 -2.290965e-01
    outer loop
      vertex   -8.542895e+01 1.298226e+02 4.500604e+00
      vertex   -8.532617e+01 1.297111e+02 4.473802e+00
      vertex   -8.544450e+01 1.276098e+02 1.063074e+01
    endloop
  endfacet
  facet normal -7.543966e-01 -6.166652e-01 -2.249662e-01
    outer loop
      vertex   -8.544450e+01 1.276098e+02 1.063074e+01
      vertex   -8.532617e+01 1.297111e+02 4.473802e+00
      vertex   -8.513503e+01 1.272755e+02 1.050910e+01
    endloop
  endfacet
  facet normal -7.553660e-01 -6.156397e-01 -2.245216e-01
    outer loop
      vertex   -8.513503e+01 1.272755e+02 1.050910e+01
      vertex   -8.532617e+01 1.297111e+02 4.473802e+00
      vertex   -8.522706e+01 1.296023e+02 4.438807e+00
    endloop
  endfacet
  facet normal -7.793788e-01 -5.889065e-01 -2.139108e-01
    outer loop
      vertex   -8.513503e+01 1.272755e+02 1.050910e+01
      vertex   -8.522706e+01 1.296023e+02 4.438807e+00
      vertex   -8.495221e+01 1.292810e+02 4.321873e+00
    endloop
  endfacet
  facet normal -7.917535e-01 -5.738311e-01 -2.093901e-01
    outer loop
      vertex   -8.513503e+01 1.272755e+02 1.050910e+01
      vertex   -8.495221e+01 1.292810e+02 4.321873e+00
      vertex   -8.484705e+01 1.269248e+02 1.038143e+01
    endloop
  endfacet
  facet normal -8.125507e-01 -5.478899e-01 -1.989421e-01
    outer loop
      vertex   -8.484705e+01 1.269248e+02 1.038143e+01
      vertex   -8.495221e+01 1.292810e+02 4.321873e+00
      vertex   -8.469651e+01 1.289460e+02 4.199962e+00
    endloop
  endfacet
  facet normal -8.263608e-01 -5.289988e-01 -1.931013e-01
    outer loop
      vertex   -8.484705e+01 1.269248e+02 1.038143e+01
      vertex   -8.469651e+01 1.289460e+02 4.199962e+00
      vertex   -8.458156e+01 1.265587e+02 1.024819e+01
    endloop
  endfacet
  facet normal -8.432795e-01 -5.052193e-01 -1.833935e-01
    outer loop
      vertex   -8.458156e+01 1.265587e+02 1.024819e+01
      vertex   -8.469651e+01 1.289460e+02 4.199962e+00
      vertex   -8.446073e+01 1.285984e+02 4.073440e+00
    endloop
  endfacet
  facet normal -8.580981e-01 -4.823358e-01 -1.761242e-01
    outer loop
      vertex   -8.458156e+01 1.265587e+02 1.024819e+01
      vertex   -8.446073e+01 1.285984e+02 4.073440e+00
      vertex   -8.433948e+01 1.261785e+02 1.010982e+01
    endloop
  endfacet
  facet normal -8.714727e-01 -4.610231e-01 -1.673115e-01
    outer loop
      vertex   -8.433948e+01 1.261785e+02 1.010982e+01
      vertex   -8.446073e+01 1.285984e+02 4.073440e+00
      vertex   -8.424559e+01 1.282392e+02 3.942688e+00
    endloop
  endfacet
  facet normal -8.868554e-01 -4.340042e-01 -1.585177e-01
    outer loop
      vertex   -8.433948e+01 1.261785e+02 1.010982e+01
      vertex   -8.424559e+01 1.282392e+02 3.942688e+00
      vertex   -8.412164e+01 1.257856e+02 9.966819e+00
    endloop
  endfacet
  facet normal -8.970455e-01 -4.154340e-01 -1.507447e-01
    outer loop
      vertex   -8.412164e+01 1.257856e+02 9.966819e+00
      vertex   -8.424559e+01 1.282392e+02 3.942688e+00
      vertex   -8.405172e+01 1.278694e+02 3.808100e+00
    endloop
  endfacet
  facet normal -9.125327e-01 -3.841717e-01 -1.403430e-01
    outer loop
      vertex   -8.412164e+01 1.257856e+02 9.966819e+00
      vertex   -8.405172e+01 1.278694e+02 3.808100e+00
      vertex   -8.392882e+01 1.253814e+02 9.819677e+00
    endloop
  endfacet
  facet normal -9.199211e-01 -3.685892e-01 -1.337427e-01
    outer loop
      vertex   -8.392882e+01 1.253814e+02 9.819677e+00
      vertex   -8.405172e+01 1.278694e+02 3.808100e+00
      vertex   -8.387972e+01 1.274902e+02 3.670079e+00
    endloop
  endfacet
  facet normal -9.350409e-01 -3.330115e-01 -1.216631e-01
    outer loop
      vertex   -8.392882e+01 1.253814e+02 9.819677e+00
      vertex   -8.387972e+01 1.274902e+02 3.670079e+00
      vertex   -8.376167e+01 1.249671e+02 9.668905e+00
    endloop
  endfacet
  facet normal -9.400308e-01 -3.206294e-01 -1.163570e-01
    outer loop
      vertex   -8.376167e+01 1.249671e+02 9.668905e+00
      vertex   -8.387972e+01 1.274902e+02 3.670079e+00
      vertex   -8.373009e+01 1.271027e+02 3.529041e+00
    endloop
  endfacet
  facet normal -9.543017e-01 -2.807014e-01 -1.025425e-01
    outer loop
      vertex   -8.376167e+01 1.249671e+02 9.668905e+00
      vertex   -8.373009e+01 1.271027e+02 3.529041e+00
      vertex   -8.362078e+01 1.245444e+02 9.515028e+00
    endloop
  endfacet
  facet normal -9.573139e-01 -2.716989e-01 -9.863991e-02
    outer loop
      vertex   -8.362078e+01 1.245444e+02 9.515028e+00
      vertex   -8.373009e+01 1.271027e+02 3.529041e+00
      vertex   -8.360329e+01 1.267081e+02 3.385410e+00
    endloop
  endfacet
  facet normal -9.702483e-01 -2.274231e-01 -8.304762e-02
    outer loop
      vertex   -8.362078e+01 1.245444e+02 9.515028e+00
      vertex   -8.360329e+01 1.267081e+02 3.385410e+00
      vertex   -8.350663e+01 1.241145e+02 9.358579e+00
    endloop
  endfacet
  facet normal -9.717186e-01 -2.219445e-01 -8.064501e-02
    outer loop
      vertex   -8.350663e+01 1.241145e+02 9.358579e+00
      vertex   -8.360329e+01 1.267081e+02 3.385410e+00
      vertex   -8.349970e+01 1.263075e+02 3.239618e+00
    endloop
  endfacet
  facet normal -9.828254e-01 -1.733617e-01 -6.324569e-02
    outer loop
      vertex   -8.350663e+01 1.241145e+02 9.358579e+00
      vertex   -8.349970e+01 1.263075e+02 3.239618e+00
      vertex   -8.341963e+01 1.236791e+02 9.200102e+00
    endloop
  endfacet
  facet normal -9.832015e-01 -1.715159e-01 -6.242668e-02
    outer loop
      vertex   -8.341963e+01 1.236791e+02 9.200102e+00
      vertex   -8.349970e+01 1.263075e+02 3.239618e+00
      vertex   -8.341963e+01 1.259022e+02 3.092103e+00
    endloop
  endfacet
  facet normal 5.589996e-14 3.420201e-01 -9.396926e-01
    outer loop
      vertex   -8.341963e+01 1.259022e+02 3.092103e+00
      vertex   -8.349970e+01 1.263075e+02 3.239618e+00
      vertex   -8.165642e+01 1.261944e+02 3.198438e+00
    endloop
  endfacet
  facet normal 8.949814e-14 3.420201e-01 -9.396926e-01
    outer loop
      vertex   -8.165642e+01 1.261944e+02 3.198438e+00
      vertex   -8.349970e+01 1.263075e+02 3.239618e+00
      vertex   -8.360329e+01 1.267081e+02 3.385410e+00
    endloop
  endfacet
  facet normal 9.662766e-14 3.420201e-01 -9.396926e-01
    outer loop
      vertex   -8.165642e+01 1.261944e+02 3.198438e+00
      vertex   -8.360329e+01 1.267081e+02 3.385410e+00
      vertex   -8.373009e+01 1.271027e+02 3.529041e+00
    endloop
  endfacet
  facet normal 9.012531e-14 3.420201e-01 -9.396926e-01
    outer loop
      vertex   -8.373009e+01 1.271027e+02 3.529041e+00
      vertex   -8.387972e+01 1.274902e+02 3.670079e+00
      vertex   -8.165642e+01 1.261944e+02 3.198438e+00
    endloop
  endfacet
  facet normal 1.118623e-13 3.420201e-01 -9.396926e-01
    outer loop
      vertex   -8.165642e+01 1.261944e+02 3.198438e+00
      vertex   -8.387972e+01 1.274902e+02 3.670079e+00
      vertex   -8.405172e+01 1.278694e+02 3.808100e+00
    endloop
  endfacet
  facet normal 3.733348e-14 3.420201e-01 -9.396926e-01
    outer loop
      vertex   -8.165642e+01 1.261944e+02 3.198438e+00
      vertex   -8.405172e+01 1.278694e+02 3.808100e+00
      vertex   -7.969298e+01 1.305192e+02 4.772553e+00
    endloop
  endfacet
  facet normal 1.158379e-14 3.420201e-01 -9.396926e-01
    outer loop
      vertex   -7.969298e+01 1.305192e+02 4.772553e+00
      vertex   -8.405172e+01 1.278694e+02 3.808100e+00
      vertex   -8.424559e+01 1.282392e+02 3.942688e+00
    endloop
  endfacet
  facet normal 3.042449e-15 3.420201e-01 -9.396926e-01
    outer loop
      vertex   -7.969298e+01 1.305192e+02 4.772553e+00
      vertex   -8.424559e+01 1.282392e+02 3.942688e+00
      vertex   -8.446073e+01 1.285984e+02 4.073440e+00
    endloop
  endfacet
  facet normal 3.707905e-16 3.420201e-01 -9.396926e-01
    outer loop
      vertex   -8.446073e+01 1.285984e+02 4.073440e+00
      vertex   -8.469651e+01 1.289460e+02 4.199962e+00
      vertex   -7.969298e+01 1.305192e+02 4.772553e+00
    endloop
  endfacet
  facet normal 6.024107e-15 3.420201e-01 -9.396926e-01
    outer loop
      vertex   -7.969298e+01 1.305192e+02 4.772553e+00
      vertex   -8.469651e+01 1.289460e+02 4.199962e+00
      vertex   -8.495221e+01 1.292810e+02 4.321873e+00
    endloop
  endfacet
  facet normal 3.553814e-14 3.420201e-01 -9.396926e-01
    outer loop
      vertex   -7.969298e+01 1.305192e+02 4.772553e+00
      vertex   -8.495221e+01 1.292810e+02 4.321873e+00
      vertex   -8.522706e+01 1.296023e+02 4.438807e+00
    endloop
  endfacet
  facet normal 9.848078e-01 1.631759e-01 5.939117e-02
    outer loop
      vertex   -8.667134e+01 1.353095e+02 6.516074e+00
      vertex   -8.667134e+01 1.330864e+02 1.262408e+01
      vertex   -8.632404e+01 1.334587e+02 5.842427e+00
    endloop
  endfacet
  facet normal 9.848078e-01 1.631759e-01 5.939117e-02
    outer loop
      vertex   -8.632404e+01 1.334587e+02 5.842427e+00
      vertex   -8.667134e+01 1.330864e+02 1.262408e+01
      vertex   -8.632404e+01 1.312356e+02 1.195043e+01
    endloop
  endfacet
  facet normal -9.848078e-01 -1.631759e-01 -5.939117e-02
    outer loop
      vertex   -8.687473e+01 1.287588e+02 1.104898e+01
      vertex   -8.765615e+01 1.329232e+02 1.256468e+01
      vertex   -8.687473e+01 1.313240e+02 4.001281e+00
    endloop
  endfacet
  facet normal -9.848078e-01 -1.631759e-01 -5.939117e-02
    outer loop
      vertex   -8.687473e+01 1.313240e+02 4.001281e+00
      vertex   -8.765615e+01 1.329232e+02 1.256468e+01
      vertex   -8.765615e+01 1.354884e+02 5.516990e+00
    endloop
  endfacet
  facet normal 9.197962e-01 -3.687321e-01 -1.342075e-01
    outer loop
      vertex   -7.342700e+01 1.253348e+02 9.802732e+00
      vertex   -7.342700e+01 1.275579e+02 3.694734e+00
      vertex   -7.181377e+01 1.288883e+02 1.109608e+01
    endloop
  endfacet
  facet normal 9.197962e-01 -3.687321e-01 -1.342075e-01
    outer loop
      vertex   -7.181377e+01 1.288883e+02 1.109608e+01
      vertex   -7.342700e+01 1.275579e+02 3.694734e+00
      vertex   -7.181377e+01 1.311114e+02 4.988080e+00
    endloop
  endfacet
endsolid
